<svg width="288" height="295" viewBox="0 0 288 295" fill="none" xmlns="http://www.w3.org/2000/svg">
<g clip-path="url(#clip0)">
<path opacity="0.505" d="M144 291C241.754 291 321 211.754 321 114C321 16.2456 241.754 -63 144 -63C46.2456 -63 -33 16.2456 -33 114C-33 211.754 46.2456 291 144 291Z" fill="#A8DE01"/>
<path fill-rule="evenodd" clip-rule="evenodd" d="M249.389 139.8C249.302 139.888 249.198 139.958 249.083 140.006C248.968 140.053 248.846 140.078 248.721 140.078C248.597 140.078 248.475 140.053 248.36 140.006C248.245 139.958 248.141 139.888 248.054 139.8L244.582 136.327V129.233C244.582 128.983 244.681 128.743 244.858 128.565C245.036 128.388 245.276 128.289 245.526 128.289C245.776 128.289 246.016 128.388 246.194 128.565C246.371 128.743 246.47 128.983 246.47 129.233V135.545L249.389 138.465C249.477 138.553 249.546 138.657 249.594 138.771C249.641 138.886 249.666 139.008 249.666 139.132C249.666 139.256 249.641 139.379 249.594 139.494C249.546 139.608 249.477 139.712 249.389 139.8V139.8ZM245.526 125.335C240.36 125.335 236.173 129.525 236.173 134.689C236.173 135.917 236.415 137.134 236.885 138.268C237.355 139.403 238.044 140.434 238.912 141.303C239.781 142.171 240.812 142.86 241.947 143.33C243.081 143.8 244.298 144.042 245.526 144.042C246.754 144.042 247.971 143.8 249.105 143.33C250.24 142.86 251.271 142.171 252.14 141.303C253.008 140.434 253.697 139.403 254.167 138.268C254.637 137.134 254.879 135.917 254.879 134.689C254.879 129.524 250.692 125.335 245.526 125.335Z" fill="url(#paint0_linear)"/>
<path fill-rule="evenodd" clip-rule="evenodd" d="M66.644 192.649C66.5734 192.72 66.4896 192.776 66.3974 192.814C66.3052 192.852 66.2063 192.872 66.1065 192.872C66.0067 192.872 65.9078 192.852 65.8156 192.814C65.7234 192.776 65.6396 192.72 65.569 192.649L62.772 189.852V184.139C62.7792 183.942 62.8624 183.756 63.0042 183.619C63.1461 183.482 63.3355 183.406 63.5325 183.406C63.7296 183.406 63.9189 183.482 64.0608 183.619C64.2026 183.756 64.2859 183.942 64.293 184.139V189.223L66.644 191.574C66.7146 191.645 66.7706 191.728 66.8088 191.821C66.847 191.913 66.8667 192.012 66.8667 192.111C66.8667 192.211 66.847 192.31 66.8088 192.402C66.7706 192.495 66.7146 192.578 66.644 192.649V192.649ZM63.533 181C61.535 181 59.6188 181.794 58.206 183.207C56.7932 184.619 55.9995 186.535 55.9995 188.533C55.9995 190.532 56.7932 192.448 58.206 193.861C59.6188 195.273 61.535 196.067 63.533 196.067C65.531 196.067 67.4472 195.273 68.86 193.861C70.2728 192.448 71.0665 190.532 71.0665 188.533C71.0665 186.535 70.2728 184.619 68.86 183.207C67.4472 181.794 65.531 181 63.533 181Z" fill="#FDBC02"/>
<path fill-rule="evenodd" clip-rule="evenodd" d="M176.192 253.72C176.085 253.828 175.957 253.913 175.817 253.972C175.677 254.03 175.526 254.06 175.374 254.06C175.222 254.06 175.071 254.03 174.931 253.972C174.791 253.913 174.663 253.828 174.556 253.72L170.302 249.466V240.775C170.297 240.62 170.324 240.466 170.38 240.322C170.436 240.178 170.521 240.046 170.628 239.935C170.736 239.824 170.865 239.736 171.008 239.675C171.15 239.615 171.304 239.584 171.458 239.584C171.613 239.584 171.767 239.615 171.909 239.675C172.052 239.736 172.181 239.824 172.289 239.935C172.396 240.046 172.481 240.178 172.537 240.322C172.593 240.466 172.62 240.62 172.615 240.775V248.508L176.192 252.085C176.299 252.192 176.385 252.32 176.443 252.46C176.501 252.6 176.531 252.751 176.531 252.902C176.531 253.054 176.501 253.205 176.443 253.345C176.385 253.485 176.299 253.613 176.192 253.72V253.72ZM171.459 236C165.13 236 160 241.13 160 247.459C160 253.788 165.13 258.918 171.459 258.918C177.788 258.918 182.918 253.788 182.918 247.459C182.918 241.13 177.788 236 171.459 236Z" fill="#EB6ED3"/>
<path fill-rule="evenodd" clip-rule="evenodd" d="M126.654 39.86C127.654 39.601 128.676 40.202 128.936 41.202L138.114 76.581C138.176 76.8189 138.19 77.0666 138.156 77.31C138.122 77.5534 138.04 77.7877 137.916 77.9996C137.791 78.2114 137.626 78.3967 137.43 78.5447C137.234 78.6928 137.01 78.8008 136.773 78.8625C136.535 78.9242 136.287 78.9385 136.044 78.9045C135.8 78.8704 135.566 78.7888 135.354 78.6643C135.142 78.5397 134.957 78.3746 134.809 78.1784C134.661 77.9823 134.553 77.7589 134.491 77.521L125.313 42.142C125.188 41.6616 125.26 41.1513 125.511 40.7233C125.763 40.2954 126.174 39.9849 126.654 39.86V39.86ZM164.66 30L160.631 44.012L170.964 54.297L137.781 62.906L131.477 38.609L164.66 29.999V30Z" fill="url(#paint1_linear)"/>
<path fill-rule="evenodd" clip-rule="evenodd" d="M253.628 198.905L243.518 203.105L242.326 213.989L221.725 198.552L233.027 183.469L253.627 198.905H253.628ZM230.034 181.226C230.655 181.691 230.781 182.572 230.316 183.193L213.858 205.157C213.75 205.311 213.611 205.441 213.452 205.541C213.292 205.64 213.114 205.706 212.928 205.736C212.743 205.765 212.553 205.757 212.37 205.711C212.188 205.666 212.016 205.585 211.866 205.472C211.715 205.359 211.589 205.217 211.494 205.055C211.399 204.892 211.338 204.712 211.314 204.526C211.29 204.339 211.304 204.15 211.355 203.968C211.405 203.787 211.492 203.618 211.609 203.471L228.067 181.507C228.178 181.359 228.316 181.235 228.475 181.141C228.634 181.047 228.81 180.985 228.992 180.959C229.175 180.933 229.361 180.944 229.54 180.989C229.719 181.035 229.887 181.116 230.034 181.227V181.226Z" fill="#FBBB03"/>
<path fill-rule="evenodd" clip-rule="evenodd" d="M33.942 109L56.842 115.75L51.9 132.518L29 125.769L36.427 118.845L33.942 109ZM60.17 116.73C60.861 116.934 61.255 117.66 61.052 118.35L53.856 142.765C53.7491 143.085 53.5219 143.352 53.2224 143.508C52.9229 143.665 52.5744 143.699 52.2503 143.603C51.9262 143.508 51.6519 143.29 51.4851 142.996C51.3182 142.702 51.272 142.355 51.356 142.028L58.551 117.612C58.5994 117.448 58.6797 117.295 58.7874 117.161C58.895 117.028 59.0278 116.917 59.1783 116.835C59.3287 116.753 59.4938 116.702 59.6642 116.684C59.8345 116.666 60.0067 116.681 60.171 116.73H60.17Z" fill="#EB6ED3"/>
<path fill-rule="evenodd" clip-rule="evenodd" d="M239.887 71.46L223.23 74.751L215.262 64.458L222.624 49.157L239.887 71.461V71.46ZM213.07 66.154L221.037 76.448L215.89 80.431L222.067 84.571C222.298 84.7185 222.497 84.9107 222.653 85.1362C222.808 85.3617 222.917 85.616 222.973 85.8842C223.029 86.1523 223.031 86.429 222.979 86.698C222.927 86.9669 222.821 87.2227 222.669 87.4503C222.516 87.6779 222.32 87.8728 222.091 88.0236C221.862 88.1743 221.606 88.2779 221.336 88.3281C221.067 88.3784 220.79 88.3744 220.523 88.3163C220.255 88.2582 220.001 88.1473 219.777 87.99L212.459 83.088L211.601 83.752C210.882 84.3081 210.055 84.7076 209.173 84.9247C208.291 85.1419 207.373 85.172 206.478 85.013C205.583 84.854 204.732 84.5094 203.978 84.0015C203.225 83.4936 202.586 82.8336 202.103 82.064C200.287 79.19 201.167 75.367 203.855 73.287L213.07 66.154V66.154ZM232.964 55.169L231.389 54.969L231.991 50.244L233.566 50.444L232.964 55.17V55.169ZM236.354 57.807L235.382 56.552L239.148 53.637L240.12 54.892L236.354 57.807ZM236.886 62.07L237.087 60.495L241.81 61.097L241.61 62.672L236.886 62.07V62.07Z" fill="url(#paint2_linear)"/>
<path fill-rule="evenodd" clip-rule="evenodd" d="M48.224 56.39L60.498 40.532L65.733 51.412L60.069 58.73L48.224 56.39V56.39ZM67.292 52.617L73.844 57.687C75.756 59.167 76.381 61.887 75.09 63.93C74.7464 64.4772 74.2921 64.9464 73.7563 65.3074C73.2205 65.6685 72.615 65.9134 71.9789 66.0264C71.3427 66.1395 70.69 66.1181 70.0626 65.9637C69.4352 65.8093 68.847 65.5253 68.336 65.13L67.727 64.658L62.524 68.143C62.3646 68.2542 62.1845 68.3325 61.9945 68.3734C61.8044 68.4142 61.6081 68.4168 61.4171 68.3809C61.226 68.3451 61.044 68.2715 60.8817 68.1645C60.7194 68.0575 60.58 67.9192 60.4718 67.7577C60.3635 67.5962 60.2886 67.4148 60.2512 67.224C60.2139 67.0332 60.215 66.8369 60.2544 66.6465C60.2938 66.4562 60.3707 66.2756 60.4807 66.1153C60.5907 65.955 60.7315 65.8182 60.895 65.713L65.287 62.769L61.627 59.936L67.292 52.616V52.617ZM53.147 44.807L52.719 41.448L53.839 41.305L54.267 44.663L53.147 44.806V44.807ZM50.737 46.682L48.058 44.61L48.749 43.717L51.427 45.789L50.737 46.682ZM50.358 49.714L47 50.142L46.858 49.022L50.216 48.594L50.359 49.714H50.358Z" fill="url(#paint3_linear)"/>
<path fill-rule="evenodd" clip-rule="evenodd" d="M80.837 253L66 229.365L83.151 228L90 238.908L80.837 253ZM86 226.165L95.917 220.032C98.81 218.242 102.678 218.798 104.701 221.562C107.023 224.732 106.121 229.165 102.881 231.169L101.959 231.739L103.907 240.448C104.003 240.873 103.965 241.318 103.797 241.721C103.629 242.123 103.341 242.464 102.971 242.695C101.777 243.435 100.221 242.765 99.911 241.375L98.266 234.023L92.728 237.449L86 226.165ZM68.624 241L64 239.73L64.376 238L69 239.269L68.624 241ZM70 245.418L65.842 248L65 246.583L69.158 244L70 245.418ZM74 247.376L72.73 252L71 251.624L72.269 247L74 247.376Z" fill="url(#paint4_linear)"/>
<path opacity="0.505" d="M144 291C241.754 291 321 211.754 321 114C321 16.2456 241.754 -63 144 -63C46.2456 -63 -33 16.2456 -33 114C-33 211.754 46.2456 291 144 291Z" fill="#A8DE01"/>
<path fill-rule="evenodd" clip-rule="evenodd" d="M249.389 139.8C249.302 139.888 249.198 139.958 249.083 140.006C248.968 140.053 248.846 140.078 248.721 140.078C248.597 140.078 248.475 140.053 248.36 140.006C248.245 139.958 248.141 139.888 248.054 139.8L244.582 136.327V129.233C244.582 128.983 244.681 128.743 244.858 128.565C245.036 128.388 245.276 128.289 245.526 128.289C245.776 128.289 246.016 128.388 246.194 128.565C246.371 128.743 246.47 128.983 246.47 129.233V135.545L249.389 138.465C249.477 138.553 249.546 138.657 249.594 138.771C249.641 138.886 249.666 139.008 249.666 139.132C249.666 139.256 249.641 139.379 249.594 139.494C249.546 139.608 249.477 139.712 249.389 139.8V139.8ZM245.526 125.335C240.36 125.335 236.173 129.525 236.173 134.689C236.173 135.917 236.415 137.134 236.885 138.268C237.355 139.403 238.044 140.434 238.912 141.303C239.781 142.171 240.812 142.86 241.947 143.33C243.081 143.8 244.298 144.042 245.526 144.042C246.754 144.042 247.971 143.8 249.105 143.33C250.24 142.86 251.271 142.171 252.14 141.303C253.008 140.434 253.697 139.403 254.167 138.268C254.637 137.134 254.879 135.917 254.879 134.689C254.879 129.524 250.692 125.335 245.526 125.335Z" fill="url(#paint5_linear)"/>
<path fill-rule="evenodd" clip-rule="evenodd" d="M66.644 192.649C66.5734 192.72 66.4896 192.776 66.3974 192.814C66.3052 192.852 66.2063 192.872 66.1065 192.872C66.0067 192.872 65.9078 192.852 65.8156 192.814C65.7234 192.776 65.6396 192.72 65.569 192.649L62.772 189.852V184.139C62.7792 183.942 62.8624 183.756 63.0042 183.619C63.1461 183.482 63.3355 183.406 63.5325 183.406C63.7296 183.406 63.9189 183.482 64.0608 183.619C64.2026 183.756 64.2859 183.942 64.293 184.139V189.223L66.644 191.574C66.7146 191.645 66.7706 191.728 66.8088 191.821C66.847 191.913 66.8667 192.012 66.8667 192.111C66.8667 192.211 66.847 192.31 66.8088 192.402C66.7706 192.495 66.7146 192.578 66.644 192.649V192.649ZM63.533 181C61.535 181 59.6188 181.794 58.206 183.207C56.7932 184.619 55.9995 186.535 55.9995 188.533C55.9995 190.532 56.7932 192.448 58.206 193.861C59.6188 195.273 61.535 196.067 63.533 196.067C65.531 196.067 67.4472 195.273 68.86 193.861C70.2728 192.448 71.0665 190.532 71.0665 188.533C71.0665 186.535 70.2728 184.619 68.86 183.207C67.4472 181.794 65.531 181 63.533 181Z" fill="#FDBC02"/>
<path fill-rule="evenodd" clip-rule="evenodd" d="M176.192 253.72C176.085 253.828 175.957 253.913 175.817 253.972C175.677 254.03 175.526 254.06 175.374 254.06C175.222 254.06 175.071 254.03 174.931 253.972C174.791 253.913 174.663 253.828 174.556 253.72L170.302 249.466V240.775C170.297 240.62 170.324 240.466 170.38 240.322C170.436 240.178 170.521 240.046 170.628 239.935C170.736 239.824 170.865 239.736 171.008 239.675C171.15 239.615 171.304 239.584 171.458 239.584C171.613 239.584 171.767 239.615 171.909 239.675C172.052 239.736 172.181 239.824 172.289 239.935C172.396 240.046 172.481 240.178 172.537 240.322C172.593 240.466 172.62 240.62 172.615 240.775V248.508L176.192 252.085C176.299 252.192 176.385 252.32 176.443 252.46C176.501 252.6 176.531 252.751 176.531 252.902C176.531 253.054 176.501 253.205 176.443 253.345C176.385 253.485 176.299 253.613 176.192 253.72V253.72ZM171.459 236C165.13 236 160 241.13 160 247.459C160 253.788 165.13 258.918 171.459 258.918C177.788 258.918 182.918 253.788 182.918 247.459C182.918 241.13 177.788 236 171.459 236Z" fill="#EB6ED3"/>
<path fill-rule="evenodd" clip-rule="evenodd" d="M126.654 39.86C127.654 39.601 128.676 40.202 128.936 41.202L138.114 76.581C138.176 76.8189 138.19 77.0666 138.156 77.31C138.122 77.5534 138.04 77.7877 137.916 77.9996C137.791 78.2114 137.626 78.3967 137.43 78.5447C137.234 78.6928 137.01 78.8008 136.773 78.8625C136.535 78.9242 136.287 78.9385 136.044 78.9045C135.8 78.8704 135.566 78.7888 135.354 78.6643C135.142 78.5397 134.957 78.3746 134.809 78.1784C134.661 77.9823 134.553 77.7589 134.491 77.521L125.313 42.142C125.188 41.6616 125.26 41.1513 125.511 40.7233C125.763 40.2954 126.174 39.9849 126.654 39.86V39.86ZM164.66 30L160.631 44.012L170.964 54.297L137.781 62.906L131.477 38.609L164.66 29.999V30Z" fill="url(#paint6_linear)"/>
<path fill-rule="evenodd" clip-rule="evenodd" d="M253.628 198.905L243.518 203.105L242.326 213.989L221.725 198.552L233.027 183.469L253.627 198.905H253.628ZM230.034 181.226C230.655 181.691 230.781 182.572 230.316 183.193L213.858 205.157C213.75 205.311 213.611 205.441 213.452 205.541C213.292 205.64 213.114 205.706 212.928 205.736C212.743 205.765 212.553 205.757 212.37 205.711C212.188 205.666 212.016 205.585 211.866 205.472C211.715 205.359 211.589 205.217 211.494 205.055C211.399 204.892 211.338 204.712 211.314 204.526C211.29 204.339 211.304 204.15 211.355 203.968C211.405 203.787 211.492 203.618 211.609 203.471L228.067 181.507C228.178 181.359 228.316 181.235 228.475 181.141C228.634 181.047 228.81 180.985 228.992 180.959C229.175 180.933 229.361 180.944 229.54 180.989C229.719 181.035 229.887 181.116 230.034 181.227V181.226Z" fill="#FBBB03"/>
<path fill-rule="evenodd" clip-rule="evenodd" d="M33.942 109L56.842 115.75L51.9 132.518L29 125.769L36.427 118.845L33.942 109ZM60.17 116.73C60.861 116.934 61.255 117.66 61.052 118.35L53.856 142.765C53.7491 143.085 53.5219 143.352 53.2224 143.508C52.9229 143.665 52.5744 143.699 52.2503 143.603C51.9262 143.508 51.6519 143.29 51.4851 142.996C51.3182 142.702 51.272 142.355 51.356 142.028L58.551 117.612C58.5994 117.448 58.6797 117.295 58.7874 117.161C58.895 117.028 59.0278 116.917 59.1783 116.835C59.3287 116.753 59.4938 116.702 59.6642 116.684C59.8345 116.666 60.0067 116.681 60.171 116.73H60.17Z" fill="#EB6ED3"/>
<path fill-rule="evenodd" clip-rule="evenodd" d="M239.887 71.46L223.23 74.751L215.262 64.458L222.624 49.157L239.887 71.461V71.46ZM213.07 66.154L221.037 76.448L215.89 80.431L222.067 84.571C222.298 84.7185 222.497 84.9107 222.653 85.1362C222.808 85.3617 222.917 85.616 222.973 85.8842C223.029 86.1523 223.031 86.429 222.979 86.698C222.927 86.9669 222.821 87.2227 222.669 87.4503C222.516 87.6779 222.32 87.8728 222.091 88.0236C221.862 88.1743 221.606 88.2779 221.336 88.3281C221.067 88.3784 220.79 88.3744 220.523 88.3163C220.255 88.2582 220.001 88.1473 219.777 87.99L212.459 83.088L211.601 83.752C210.882 84.3081 210.055 84.7076 209.173 84.9247C208.291 85.1419 207.373 85.172 206.478 85.013C205.583 84.854 204.732 84.5094 203.978 84.0015C203.225 83.4936 202.586 82.8336 202.103 82.064C200.287 79.19 201.167 75.367 203.855 73.287L213.07 66.154V66.154ZM232.964 55.169L231.389 54.969L231.991 50.244L233.566 50.444L232.964 55.17V55.169ZM236.354 57.807L235.382 56.552L239.148 53.637L240.12 54.892L236.354 57.807ZM236.886 62.07L237.087 60.495L241.81 61.097L241.61 62.672L236.886 62.07V62.07Z" fill="url(#paint7_linear)"/>
<path fill-rule="evenodd" clip-rule="evenodd" d="M48.224 56.39L60.498 40.532L65.733 51.412L60.069 58.73L48.224 56.39V56.39ZM67.292 52.617L73.844 57.687C75.756 59.167 76.381 61.887 75.09 63.93C74.7464 64.4772 74.2921 64.9464 73.7563 65.3074C73.2205 65.6685 72.615 65.9134 71.9789 66.0264C71.3427 66.1395 70.69 66.1181 70.0626 65.9637C69.4352 65.8093 68.847 65.5253 68.336 65.13L67.727 64.658L62.524 68.143C62.3646 68.2542 62.1845 68.3325 61.9945 68.3734C61.8044 68.4142 61.6081 68.4168 61.4171 68.3809C61.226 68.3451 61.044 68.2715 60.8817 68.1645C60.7194 68.0575 60.58 67.9192 60.4718 67.7577C60.3635 67.5962 60.2886 67.4148 60.2512 67.224C60.2139 67.0332 60.215 66.8369 60.2544 66.6465C60.2938 66.4562 60.3707 66.2756 60.4807 66.1153C60.5907 65.955 60.7315 65.8182 60.895 65.713L65.287 62.769L61.627 59.936L67.292 52.616V52.617ZM53.147 44.807L52.719 41.448L53.839 41.305L54.267 44.663L53.147 44.806V44.807ZM50.737 46.682L48.058 44.61L48.749 43.717L51.427 45.789L50.737 46.682ZM50.358 49.714L47 50.142L46.858 49.022L50.216 48.594L50.359 49.714H50.358Z" fill="url(#paint8_linear)"/>
<path fill-rule="evenodd" clip-rule="evenodd" d="M80.837 253L66 229.365L83.151 228L90 238.908L80.837 253ZM86 226.165L95.917 220.032C98.81 218.242 102.678 218.798 104.701 221.562C107.023 224.732 106.121 229.165 102.881 231.169L101.959 231.739L103.907 240.448C104.003 240.873 103.965 241.318 103.797 241.721C103.629 242.123 103.341 242.464 102.971 242.695C101.777 243.435 100.221 242.765 99.911 241.375L98.266 234.023L92.728 237.449L86 226.165ZM68.624 241L64 239.73L64.376 238L69 239.269L68.624 241ZM70 245.418L65.842 248L65 246.583L69.158 244L70 245.418ZM74 247.376L72.73 252L71 251.624L72.269 247L74 247.376Z" fill="url(#paint9_linear)"/>
</g>
<defs>
<linearGradient id="paint0_linear" x1="236.173" y1="134.688" x2="254.879" y2="134.688" gradientUnits="userSpaceOnUse">
<stop stop-color="#00E1FF" stop-opacity="0.233"/>
<stop offset="1" stop-color="#00F2FF"/>
</linearGradient>
<linearGradient id="paint1_linear" x1="148.109" y1="29.999" x2="148.109" y2="77.7101" gradientUnits="userSpaceOnUse">
<stop stop-color="#FFE000"/>
<stop offset="1" stop-color="#FFAA00"/>
</linearGradient>
<linearGradient id="paint2_linear" x1="241.81" y1="55.2143" x2="202.104" y2="83.3497" gradientUnits="userSpaceOnUse">
<stop stop-color="#FF719D"/>
<stop offset="1" stop-color="#EB6ED3"/>
</linearGradient>
<linearGradient id="paint3_linear" x1="50.1553" y1="45.2859" x2="75.051" y2="65.5232" gradientUnits="userSpaceOnUse">
<stop stop-color="#00F2FF"/>
<stop offset="1" stop-color="#00E1FF" stop-opacity="0.233"/>
</linearGradient>
<linearGradient id="paint4_linear" x1="64" y1="242.748" x2="102.803" y2="222.089" gradientUnits="userSpaceOnUse">
<stop stop-color="#00F2FF"/>
<stop offset="1" stop-color="#00E1FF" stop-opacity="0.233"/>
</linearGradient>
<linearGradient id="paint5_linear" x1="236.173" y1="134.688" x2="254.879" y2="134.688" gradientUnits="userSpaceOnUse">
<stop stop-color="#00E1FF" stop-opacity="0.233"/>
<stop offset="1" stop-color="#00F2FF"/>
</linearGradient>
<linearGradient id="paint6_linear" x1="148.109" y1="29.999" x2="148.109" y2="77.7101" gradientUnits="userSpaceOnUse">
<stop stop-color="#FFE000"/>
<stop offset="1" stop-color="#FFAA00"/>
</linearGradient>
<linearGradient id="paint7_linear" x1="241.81" y1="55.2143" x2="202.104" y2="83.3497" gradientUnits="userSpaceOnUse">
<stop stop-color="#FF719D"/>
<stop offset="1" stop-color="#EB6ED3"/>
</linearGradient>
<linearGradient id="paint8_linear" x1="50.1553" y1="45.2859" x2="75.051" y2="65.5232" gradientUnits="userSpaceOnUse">
<stop stop-color="#00F2FF"/>
<stop offset="1" stop-color="#00E1FF" stop-opacity="0.233"/>
</linearGradient>
<linearGradient id="paint9_linear" x1="64" y1="242.748" x2="102.803" y2="222.089" gradientUnits="userSpaceOnUse">
<stop stop-color="#00F2FF"/>
<stop offset="1" stop-color="#00E1FF" stop-opacity="0.233"/>
</linearGradient>
<clipPath id="clip0">
<rect width="288" height="295" fill="white"/>
</clipPath>
</defs>
</svg>
